HIERARCHY
ROOT hip
{
  OFFSET 23.9014 71.0198 11.9034
  CHANNELS 6 Xposition Yposition Zposition Zrotation Xrotation Yrotation
  JOINT abdomen
  {
    OFFSET 0 20.6881 -0.73152
    CHANNELS 3 Zrotation Xrotation Yrotation
    JOINT chest
    {
      OFFSET 0 11.7043 -0.48768
      CHANNELS 3 Zrotation Xrotation Yrotation
      JOINT neck
      {
        OFFSET 0 22.1894 -2.19456
        CHANNELS 3 Zrotation Xrotation Yrotation
        JOINT head
        {
          OFFSET -0.24384 7.07133 1.2192
          CHANNELS 3 Zrotation Xrotation Yrotation
          JOINT leftEye
          {
            OFFSET 4.14528 8.04674 8.04672
            CHANNELS 3 Zrotation Xrotation Yrotation
            End Site
            {
              OFFSET 1 0 0
            }
          }
          JOINT rightEye
          {
            OFFSET -3.6576 8.04674 8.04672
            CHANNELS 3 Zrotation Xrotation Yrotation
            End Site
            {
              OFFSET 1 0 0
            }
          }
        }
      }
      JOINT rCollar
      {
        OFFSET -2.68224 19.2634 -4.8768
        CHANNELS 3 Zrotation Xrotation Yrotation
        JOINT rShldr
        {
          OFFSET -8.77824 -1.95073 1.46304
          CHANNELS 3 Zrotation Xrotation Yrotation
          JOINT rForeArm
          {
            OFFSET -28.1742 -1.7115 0.48768
            CHANNELS 3 Zrotation Xrotation Yrotation
            JOINT rHand
            {
              OFFSET -22.5879 0.773209 7.07136
              CHANNELS 3 Zrotation Xrotation Yrotation
              JOINT rThumb1
              {
                OFFSET -1.2192 -0.487915 3.41376
                CHANNELS 3 Zrotation Xrotation Yrotation
                JOINT rThumb2
                {
                  OFFSET -3.37035 -0.52449 3.41376
                  CHANNELS 3 Zrotation Xrotation Yrotation
                  End Site
                  {
                    OFFSET -1.78271 -1.18214 1.43049
                  }
                }
              }
              JOINT rIndex1
              {
                OFFSET -7.75947 0.938293 5.60832
                CHANNELS 3 Zrotation Xrotation Yrotation
                JOINT rIndex2
                {
                  OFFSET -2.54057 -0.884171 1.56538
                  CHANNELS 3 Zrotation Xrotation Yrotation
                  End Site
                  {
                    OFFSET -1.62519 -0.234802 1.16502
                  }
                }
              }
              JOINT rMid1
              {
                OFFSET -8.24714 1.18213 3.41376
                CHANNELS 3 Zrotation Xrotation Yrotation
                JOINT rMid2
                {
                  OFFSET -3.10165 -0.590103 1.0647
                  CHANNELS 3 Zrotation Xrotation Yrotation
                  End Site
                  {
                    OFFSET -2.48547 -0.328903 0.83742
                  }
                }
              }
              JOINT rRing1
              {
                OFFSET -8.82822 0.546677 1.51678
                CHANNELS 3 Zrotation Xrotation Yrotation
                JOINT rRing2
                {
                  OFFSET -2.60934 -0.819778 -0.0198488
                  CHANNELS 3 Zrotation Xrotation Yrotation
                  End Site
                  {
                    OFFSET -2.33842 -0.294052 0.168128
                  }
                }
              }
              JOINT rPinky1
              {
                OFFSET -8.27202 -0.0477905 -0.4584
                CHANNELS 3 Zrotation Xrotation Yrotation
                JOINT rPinky2
                {
                  OFFSET -1.82734 -0.647385 -0.700984
                  CHANNELS 3 Zrotation Xrotation Yrotation
                  End Site
                  {
                    OFFSET -1.69225 -0.51767 -0.607171
                  }
                }
              }
            }
          }
        }
      }
      JOINT lCollar
      {
        OFFSET 2.68224 19.2634 -4.8768
        CHANNELS 3 Zrotation Xrotation Yrotation
        JOINT lShldr
        {
          OFFSET 8.77824 -1.95073 1.46304
          CHANNELS 3 Zrotation Xrotation Yrotation
          JOINT lForeArm
          {
            OFFSET 28.1742 -1.7115 0.48768
            CHANNELS 3 Zrotation Xrotation Yrotation
            JOINT lHand
            {
              OFFSET 22.5879 0.773209 7.07136
              CHANNELS 3 Zrotation Xrotation Yrotation
              JOINT lThumb1
              {
                OFFSET 1.2192 -0.487915 3.41376
                CHANNELS 3 Zrotation Xrotation Yrotation
                JOINT lThumb2
                {
                  OFFSET 3.37035 -0.52449 3.41376
                  CHANNELS 3 Zrotation Xrotation Yrotation
                  End Site
                  {
                    OFFSET 1.78271 -1.18214 1.43049
                  }
                }
              }
              JOINT lIndex1
              {
                OFFSET 7.75947 0.938293 5.60832
                CHANNELS 3 Zrotation Xrotation Yrotation
                JOINT lIndex2
                {
                  OFFSET 2.54057 -0.884171 1.56538
                  CHANNELS 3 Zrotation Xrotation Yrotation
                  End Site
                  {
                    OFFSET 1.62519 -0.234802 1.16502
                  }
                }
              }
              JOINT lMid1
              {
                OFFSET 8.24714 1.18213 3.41376
                CHANNELS 3 Zrotation Xrotation Yrotation
                JOINT lMid2
                {
                  OFFSET 3.10165 -0.590103 1.0647
                  CHANNELS 3 Zrotation Xrotation Yrotation
                  End Site
                  {
                    OFFSET 2.48547 -0.328903 0.83742
                  }
                }
              }
              JOINT lRing1
              {
                OFFSET 8.82822 0.546677 1.51678
                CHANNELS 3 Zrotation Xrotation Yrotation
                JOINT lRing2
                {
                  OFFSET 2.60934 -0.819778 -0.0198488
                  CHANNELS 3 Zrotation Xrotation Yrotation
                  End Site
                  {
                    OFFSET 2.33842 -0.294052 0.168128
                  }
                }
              }
              JOINT lPinky1
              {
                OFFSET 8.27202 -0.0477905 -0.4584
                CHANNELS 3 Zrotation Xrotation Yrotation
                JOINT lPinky2
                {
                  OFFSET 1.82734 -0.647385 -0.700984
                  CHANNELS 3 Zrotation Xrotation Yrotation
                  End Site
                  {
                    OFFSET 1.69225 -0.51767 -0.607171
                  }
                }
              }
            }
          }
        }
      }
    }
  }
  JOINT rButtock
  {
    OFFSET -8.77824 4.35084 1.2192
    CHANNELS 3 Zrotation Xrotation Yrotation
    JOINT rThigh
    {
      OFFSET 0 -1.70687 -2.19456
      CHANNELS 3 Zrotation Xrotation Yrotation
      JOINT rShin
      {
        OFFSET 0 -36.8199 0.73152
        CHANNELS 3 Zrotation Xrotation Yrotation
        JOINT rFoot
        {
          OFFSET 0.73152 -45.1104 -5.12064
          CHANNELS 3 Zrotation Xrotation Yrotation
          End Site
          {
            OFFSET -1.1221 -3.69964 12.103
          }
        }
      }
    }
  }
  JOINT lButtock
  {
    OFFSET 8.77824 4.35084 1.2192
    CHANNELS 3 Zrotation Xrotation Yrotation
    JOINT lThigh
    {
      OFFSET 0 -1.70687 -2.19456
      CHANNELS 3 Zrotation Xrotation Yrotation
      JOINT lShin
      {
        OFFSET 0 -36.8199 0.73152
        CHANNELS 3 Zrotation Xrotation Yrotation
        JOINT lFoot
        {
          OFFSET -0.73152 -45.1104 -5.12064
          CHANNELS 3 Zrotation Xrotation Yrotation
          End Site
          {
            OFFSET 1.1221 -3.69964 12.103
          }
        }
      }
    }
  }
}
MOTION
Frames:	5
Frame Time:	0.00833333
25.3257 78.137 15.0957 0.690805 10.2114 -8.83716 -1.94026 3.00312 -1.30982 -0.395623 -1.8797 -0.315053 -1.12933 4.30572 -0.366595 0.948015 21.3107 -0.957696 -0 0 0 -0 0 0 1.91762e-014 2.21846e-013 -1.64199e-014 27.1945 30.9763 42.0769 28.265 -38.667 -81.5647 -1.79993 -35.1496 -5.67894 1.35456e-010 -1.69676e-010 5.80456e-010 2.20581e-010 -3.55202e-010 1.00245e-009 1.35459e-010 -1.69675e-010 5.80453e-010 7.73091 5.47488 0.417314 1.35454e-010 -1.69675e-010 5.80458e-010 2.90554 0.965183 0.102902 1.35459e-010 -1.69682e-010 5.80461e-010 10.2786 0.731801 0.0259123 1.35451e-010 -1.69654e-010 5.80473e-010 2.22167 -0.733487 -0.20892 1.91533e-014 2.21842e-013 -1.66898e-014 -17.9358 20.3041 -52.6997 28.0635 -31.0042 -68.8529 6.7968 -56.9792 12.4885 1.17444e-010 -1.14088e-009 -4.10927e-010 2.20153e-010 -1.98064e-009 -7.01684e-010 1.17442e-010 -1.14088e-009 -4.10929e-010 -7.73091 5.47488 -0.417314 1.17444e-010 -1.14088e-009 -4.10926e-010 -2.90554 0.965183 -0.102902 1.17442e-010 -1.14088e-009 -4.10929e-010 -10.2786 0.731801 -0.0259123 1.1745e-010 -1.14088e-009 -4.10941e-010 -2.22167 -0.733487 0.20892 -2.03217e-016 0 -3.88251e-019 -2.58315 -60.1512 0.0406238 -0.242285 30.5821 0.118735 1.37527 41.3739 -2.70341 2.03217e-016 0 3.88251e-019 -6.05998 -36.2154 5.5697 0.350903 43.1924 -1.04651 1.36824 -15.6672 2.353 
25.3579 78.0782 15.1 0.716029 10.3335 -8.7188 -1.92278 2.90585 -1.43623 -0.390791 -1.72862 -0.349425 -1.22658 4.21751 -0.37281 1.02791 21.2873 -0.962256 -0 0 0 -0 0 0 2.9431e-014 2.09919e-013 -6.18717e-014 27.4353 31.5261 41.9113 28.2668 -38.6512 -81.5372 -1.77089 -34.9082 -5.6282 3.0298e-010 5.83624e-010 6.01526e-010 5.08956e-010 9.39402e-010 1.0445e-009 3.02983e-010 5.83627e-010 6.01526e-010 7.73091 5.47488 0.417314 3.02978e-010 5.83624e-010 6.01529e-010 2.90554 0.965183 0.102902 3.02982e-010 5.83624e-010 6.01531e-010 10.2786 0.731801 0.0259123 3.02975e-010 5.8365e-010 6.01545e-010 2.22167 -0.733487 -0.20892 2.94113e-014 2.09915e-013 -6.21202e-014 -18.1855 20.9193 -52.4875 28.0744 -31.0753 -68.9681 6.79641 -56.9785 12.4881 -5.78034e-011 -6.28971e-010 -3.12388e-010 -8.55426e-011 -1.11208e-009 -5.40705e-010 -5.78074e-011 -6.28974e-010 -3.12388e-010 -7.73091 5.47488 -0.417314 -5.78042e-011 -6.28973e-010 -3.12385e-010 -2.90554 0.965183 -0.102902 -5.78059e-011 -6.28974e-010 -3.12388e-010 -10.2786 0.731801 -0.0259123 -5.77968e-011 -6.28973e-010 -3.124e-010 -2.22167 -0.733487 0.20892 -2.03217e-016 0 -3.88251e-019 -2.85643 -60.4279 -0.409168 -0.243137 30.6778 0.123528 1.1305 41.8092 -2.27367 2.03217e-016 0 3.88251e-019 -6.27671 -36.4973 5.2001 0.356395 43.4408 -1.05564 1.41577 -15.7226 2.48235 
25.3619 78.0568 15.122 0.708849 10.3158 -8.46902 -1.93093 2.98678 -1.63388 -0.322717 -1.62631 -0.405398 -1.33405 4.08865 -0.407007 1.13444 21.33 -1.02359 -0 0 0 -0 0 0 1.60712e-014 1.22665e-013 -1.10291e-014 27.6281 32.0702 41.7422 28.2697 -38.6262 -81.4934 -1.7473 -34.7105 -5.58681 2.77756e-010 9.98028e-010 2.01056e-010 4.75347e-010 1.70134e-009 3.54606e-010 2.77759e-010 9.98036e-010 2.01056e-010 7.73091 5.47488 0.417314 2.77753e-010 9.98028e-010 2.01059e-010 2.90554 0.965183 0.102902 2.77757e-010 9.98031e-010 2.01061e-010 10.2786 0.731801 0.0259123 2.7775e-010 9.98052e-010 2.01073e-010 2.22167 -0.733487 -0.20892 1.6046e-014 1.22661e-013 -1.12865e-014 -18.4289 21.5405 -52.3257 28.0813 -31.1208 -69.0417 6.76113 -56.8916 12.446 -2.80382e-010 3.87627e-010 -3.35143e-011 -4.81607e-010 6.36994e-010 -7.18631e-011 -2.80388e-010 3.87629e-010 -3.35102e-011 -7.73091 5.47488 -0.417314 -2.80383e-010 3.87623e-010 -3.35078e-011 -2.90554 0.965183 -0.102902 -2.80385e-010 3.87623e-010 -3.35123e-011 -10.2786 0.731801 -0.0259123 -2.80376e-010 3.87622e-010 -3.35229e-011 -2.22167 -0.733487 0.20892 -2.03217e-016 0 -3.88251e-019 -3.2107 -60.4834 -0.862275 -0.244801 30.7942 0.124164 1.2127 41.4586 -2.43221 2.03217e-016 0 3.88251e-019 -6.55225 -36.518 4.69884 0.358997 43.5495 -1.05907 1.46853 -15.7667 2.63174 
25.3321 78.0873 15.2324 0.68663 10.2113 -8.12505 -1.95522 3.17005 -1.89168 -0.210439 -1.5368 -0.479096 -1.45812 3.92591 -0.45971 1.27014 21.41 -1.12258 -0 0 0 -0 0 0 -1.24554e-014 -1.60002e-014 9.80288e-014 27.7784 32.5989 41.584 28.2735 -38.5927 -81.4348 -1.72614 -34.5321 -5.5496 1.35239e-010 1.24139e-009 -4.78761e-010 2.46368e-010 2.20243e-009 -8.19983e-010 1.35244e-010 1.24141e-009 -4.78763e-010 7.73091 5.47488 0.417314 1.35236e-010 1.2414e-009 -4.78759e-010 2.90554 0.965183 0.102902 1.35241e-010 1.2414e-009 -4.78758e-010 10.2786 0.731801 0.0259123 1.35232e-010 1.24141e-009 -4.7875e-010 2.22167 -0.733487 -0.20892 -1.24929e-014 -1.6004e-014 9.77461e-014 -18.6816 22.1582 -52.1845 28.086 -31.1523 -69.0921 6.70899 -56.762 12.3837 -5.42481e-010 1.76262e-009 3.68774e-010 -9.51715e-010 3.00995e-009 6.07352e-010 -5.4249e-010 1.76263e-009 3.68784e-010 -7.73091 5.47488 -0.417314 -5.42481e-010 1.76262e-009 3.68785e-010 -2.90554 0.965183 -0.102902 -5.42485e-010 1.76261e-009 3.68779e-010 -10.2786 0.731801 -0.0259123 -5.42477e-010 1.76261e-009 3.68772e-010 -2.22167 -0.733487 0.20892 -2.03217e-016 0 -3.88251e-019 -3.64538 -60.4066 -1.34802 -0.247088 30.9371 0.122898 1.47297 40.6255 -2.92696 2.03217e-016 0 3.88251e-019 -6.88182 -36.3736 4.08821 0.359747 43.5729 -1.05924 1.52818 -15.8055 2.80393 
25.3323 77.9351 15.0854 0.661332 10.0864 -7.78608 -1.97952 3.37625 -2.13341 -0.0965596 -1.45443 -0.54833 -1.58192 3.77925 -0.519806 1.41257 21.472 -1.23712 -0 0 0 -0 0 0 -4.3592e-014 -1.64555e-013 2.01867e-013 27.9449 33.1296 41.3902 28.2768 -38.5623 -81.3819 -1.70719 -34.3711 -5.51614 -4.72447e-011 1.40044e-009 -1.19418e-009 -5.08156e-011 2.56289e-009 -2.05713e-009 -4.72376e-011 1.40046e-009 -1.19418e-009 7.73091 5.47488 0.417314 -4.72473e-011 1.40044e-009 -1.19418e-009 2.90554 0.965183 0.102902 -4.72416e-011 1.40044e-009 -1.19418e-009 10.2786 0.731801 0.0259123 -4.72523e-011 1.40045e-009 -1.19417e-009 2.22167 -0.733487 -0.20892 -4.364e-014 -1.64558e-013 2.01564e-013 -18.8937 22.7807 -52.0771 28.09 -31.1781 -69.1332 6.663 -56.6467 12.3287 -7.59787e-010 3.06102e-009 7.66331e-010 -1.34446e-009 5.2549e-009 1.28066e-009 -7.598e-010 3.06103e-009 7.66347e-010 -7.73091 5.47488 -0.417314 -7.59787e-010 3.06101e-009 7.66346e-010 -2.90554 0.965183 -0.102902 -7.59793e-010 3.06101e-009 7.66338e-010 -10.2786 0.731801 -0.0259123 -7.59785e-010 3.06101e-009 7.66335e-010 -2.22167 -0.733487 0.20892 -2.03217e-016 0 -3.88251e-019 -4.04624 -60.2999 -1.77499 -0.249657 31.0859 0.120358 1.77814 39.7321 -3.52392 2.03217e-016 0 3.88251e-019 -7.19763 -36.1897 3.4858 0.359937 43.5736 -1.05873 1.58841 -15.8358 2.97846 
